<?xml version="1.0" encoding="utf-8"?>
<!-- Svg Vector Icons : http://www.onlinewebfonts.com/icon -->
<!DOCTYPE svg PUBLIC "-//W3C//DTD SVG 1.1//EN" "http://www.w3.org/Graphics/SVG/1.1/DTD/svg11.dtd">
<svg version="1.1" xmlns="http://www.w3.org/2000/svg" xmlns:xlink="http://www.w3.org/1999/xlink" x="0px" y="0px" viewBox="0 0 1000 1000" enable-background="new 0 0 1000 1000" xml:space="preserve">
<metadata> Svg Vector Icons : http://www.onlinewebfonts.com/icon </metadata>
<g><g transform="translate(0.000000,512.000000) scale(0.100000,-0.100000)"><path d="M1977.6,4988.1c-935.4-149.2-1704.4-923.9-1846-1865.1c-42.1-269.7-42.1-5736.9,0-6006.6c143.5-950.7,914.4-1721.7,1865.1-1865.1c151.1-24.9,640.8-28.7,2997.6-28.7c1865.1,0,2865.6,7.7,2965.1,21c969.9,130.1,1763.8,908.6,1909.1,1872.8c42.1,269.7,42.1,5736.9,0,6006.6c-143.5,950.7-914.4,1721.7-1865.1,1865.1C7743.2,5028.3,2228.1,5026.3,1977.6,4988.1z M8158.3,4601.7c681-193.2,1136.3-650.4,1321.9-1325.7l44-162.6V119.6v-2993.7l-53.6-189.4c-179.8-648.5-638.9-1107.6-1287.4-1287.4l-189.4-53.6H5000H2006.2l-162.6,44c-355.8,97.6-610.2,242.9-851.3,489.7c-237.2,239.1-394.1,522.2-482.1,864.6c-32.5,122.4-34.4,329-34.4,3125.7c0,2796.7,1.9,3003.3,34.4,3125.8c185.6,726.9,736.5,1249.1,1453.8,1379.2c111,21.1,728.8,24.9,3093.2,23l2955.5-3.8L8158.3,4601.7z"/><path d="M3098.5,2793.9c-5.7-24.9-340.5-1165-744.1-2534.6l-734.6-2492.6h283.1h283.1l21,72.7c11.5,38.3,118.6,401.7,237.2,807.3l214.3,736.5l759.4,5.7l757.5,3.8l38.3-128.2c23-72.7,133.9-436.2,246.8-809.2l208.5-679.1l288.8-5.7c179.8-1.9,290.8,1.9,290.8,13.4c0,15.3-1126.7,3734.1-1474.9,4866.5l-57.4,185.6h-302.2C3115.8,2836,3110,2836,3098.5,2793.9z M3731.7,951.8L4035.9-43l-300.3-5.7c-166.4-1.9-441.9-1.9-614.1,0L2807.8-43l296.5,1008.1c164.5,554.8,304.2,1002.4,311.8,994.7C3421.8,1952.2,3565.3,1498.9,3731.7,951.8z"/><path d="M6453.8,1430c-275.5-57.4-478.2-162.6-650.4-334.8c-145.4-145.4-235.3-304.1-286.9-508.8c-36.4-137.7-38.3-214.3-38.3-1096.1c0-1036.8,3.8-1084.6,112.9-1298.9c176-346.2,531.8-506.9,1130.5-506.9c306.1,0,443.8,19.1,692.5,101.4c170.2,57.4,474.4,208.5,474.4,239.1c0,19.1-164.5,390.2-179.8,407.5c-3.8,1.9-88-34.4-189.4-82.3c-573.9-267.8-1153.5-267.8-1386.9,0c-107.1,120.5-124.3,181.7-133.9,499.3l-7.7,288.8l177.9,11.5c99.5,5.8,570.1,30.6,1046.4,53.6l864.6,44v594.9c0,679.1-13.4,772.8-133.9,1015.8c-130.1,265.9-384.5,466.7-698.2,552.8C7088.9,1454.9,6620.3,1466.4,6453.8,1430z M7106.2,925c149.2-57.4,279.3-147.3,336.7-233.4c86.1-130.1,101.4-223.8,101.4-612.1v-359.6l-99.5-9.6c-118.6-11.5-1247.2-68.9-1369.7-68.9h-84.2l7.7,397.9c9.6,451.5,30.6,539.5,168.3,696.3c78.4,89.9,252.5,193.2,374.9,223.8C6668.1,991.9,6983.7,972.8,7106.2,925z"/></g></g>
</svg>