<svg width="503" height="512" viewBox="0 0 503 512" fill="none" xmlns="http://www.w3.org/2000/svg">
<path d="M250.24 10V139.488C250.24 159.714 266.747 176.111 287.109 176.111C307.471 176.111 323.978 159.714 323.978 139.488V114.223C323.978 134.449 340.485 150.846 360.847 150.846C381.209 150.846 397.716 134.449 397.716 114.223V10H250.24Z" fill="black"/>
<path d="M397.715 0H96.285C90.763 0 86.285 4.478 86.285 10V275.095C86.285 305.656 111.324 330.519 142.101 330.519H207.758V349.666C207.758 372.31 202.633 405.201 192.838 424.253C187.952 433.756 185.7 444.463 186.325 455.217C188.103 485.831 213.687 510.753 244.569 511.952C245.394 511.984 246.215 512 247.036 512C262.911 512 277.834 506.016 289.285 495C301.21 483.53 307.776 468.138 307.776 451.656C307.776 442.51 305.765 433.721 301.798 425.532C291.693 404.669 286.239 370.871 286.239 349.662V330.518H351.896C382.673 330.518 407.712 305.655 407.712 275.094V10C407.715 4.478 403.237 0 397.715 0ZM106.285 20H137.693V58.517C137.693 64.039 142.171 68.517 147.693 68.517C153.215 68.517 157.693 64.039 157.693 58.517V20H179.555V121.109C179.555 126.631 184.033 131.109 189.555 131.109C195.077 131.109 199.555 126.631 199.555 121.109V20H387.714V242.786H106.284V20H106.285ZM387.715 275.095C387.715 294.628 371.648 310.519 351.899 310.519H276.242C270.72 310.519 266.242 314.997 266.242 320.519V349.663C266.242 373.684 272.273 410.453 283.801 434.252C286.441 439.7 287.779 445.557 287.779 451.657C287.779 462.648 283.391 472.923 275.424 480.587C267.336 488.367 256.633 492.395 245.35 491.969C224.638 491.164 207.483 474.512 206.295 454.058C205.877 446.87 207.375 439.726 210.628 433.399C222.399 410.503 227.761 373.945 227.761 349.668V320.521C227.761 314.999 223.283 310.521 217.761 310.521H142.104C122.355 310.521 106.288 294.63 106.288 275.097V262.788H387.718V275.095H387.715Z" fill="black"/>
</svg>
