<?xml version="1.0" encoding="utf-8"?>
<!-- Svg Vector Icons : http://www.onlinewebfonts.com/icon -->
<!DOCTYPE svg PUBLIC "-//W3C//DTD SVG 1.1//EN" "http://www.w3.org/Graphics/SVG/1.1/DTD/svg11.dtd">
<svg version="1.1" xmlns="http://www.w3.org/2000/svg" xmlns:xlink="http://www.w3.org/1999/xlink" x="0px" y="0px" viewBox="0 0 1000 1000" enable-background="new 0 0 1000 1000" xml:space="preserve">
<metadata> Svg Vector Icons : http://www.onlinewebfonts.com/icon </metadata>
<g><g transform="translate(0.000000,512.000000) scale(0.100000,-0.100000)"><path d="M1985.2,4988.4C1045.9,4843,275,4068.3,131.6,3123.3c-42.1-269.7-42.1-5736.9,0-6006.6C275-3834.1,1045.9-4605,1996.7-4748.4c151.1-24.9,640.8-28.7,2997.6-28.7c1865.1,0,2865.6,7.7,2965.1,21c969.9,130.1,1763.8,908.6,1909.1,1872.8c42.1,269.7,42.1,5736.9,0,6006.6C9725,4074.1,8954.1,4845,8003.3,4988.4C7752.7,5026.7,2230.1,5026.7,1985.2,4988.4z M8158.3,4602c681-193.2,1136.3-650.4,1321.9-1325.7l44-162.6V120v-2993.7l-53.6-189.4c-179.8-648.5-638.9-1107.6-1287.4-1287.4l-189.4-53.6H5000H2006.2l-162.6,44c-355.8,97.6-610.2,242.9-851.3,489.7c-237.2,239.1-394.1,522.2-482.1,864.6c-32.5,122.4-34.4,329-34.4,3125.8c0,2796.7,1.9,3003.3,34.4,3125.7c185.6,726.9,736.5,1249.2,1453.8,1379.2c111,21,728.8,24.9,3093.2,23l2955.5-3.8L8158.3,4602z"/><path d="M2570.6,2597.3v-239.1h208.5c114.8,0,221.9-5.7,239.1-11.5c26.8-11.5,30.6-231.5,30.6-2295.5v-2284.1H3307h258.2V301.7v2534.6h-497.4h-497.4V2597.3z"/><path d="M6836.4,2052.1c0-430.4-5.7-784.3-15.3-784.3c-7.7,0-30.6,11.5-51.7,26.8c-80.4,55.5-329,128.2-508.8,149.2c-208.5,24.9-529.9,1.9-734.6-51.7c-199-51.7-384.5-153-516.5-277.4C4868,977,4783.8,829.7,4732.2,625c-36.3-135.8-38.3-214.2-38.3-1038.7c0-962.2,5.7-1023.4,105.2-1235.7c145.4-308,455.3-514.6,933.5-627.4c151.1-34.4,233.4-40.2,568.2-38.3c340.5,0,929.7,42.1,1038.7,74.6c30.6,9.6,32.5,147.3,32.5,2544.2v2532.7h-267.8h-267.8V2052.1z M6465.3,894.7c95.6-24.9,218.1-67,271.6-93.7l99.5-49.7L6832.6-517l-5.7-1266.4l-86.1-13.4c-181.7-30.6-778.6-40.2-902.9-17.2c-277.4,55.5-508.8,223.8-587.3,428.5c-38.3,107.1-40.2,139.6-40.2,923.9c0,770.9,1.9,818.7,40.2,929.7c120.5,359.6,390.2,508.8,868.5,480.1C6214.7,942.6,6369.7,917.7,6465.3,894.7z"/></g></g>
</svg>